<svg width="457" height="437" viewBox="0 0 457 437" fill="none" xmlns="http://www.w3.org/2000/svg">
<g filter="url(#filter0_d_58_1224)">
<path d="M7.4681 65.1749L26.6636 139.408C28.3897 146.083 35.7936 144.104 42.0049 141.579L123.427 114.876L162.103 156.842L147.888 105.811C160.14 102.642 158.026 93.7577 156.919 90.1857L144.062 40.4633C140.801 27.852 139.013 26.882 132.152 26.1822L22.1675 47.8709C6.89286 51.1525 5.32391 56.8841 7.4681 65.1749Z" fill="#F9F2F0" stroke="#151515" stroke-width="5"/>
<g filter="url(#filter1_d_58_1224)">
<path d="M22.9812 86.6068L18.718 70.1201C17.9368 66.6513 18.7168 59.2305 28.0858 57.2972L52.0261 51.1066" stroke="black" stroke-width="5" stroke-linecap="round"/>
</g>
<g filter="url(#filter2_d_58_1224)">
<path d="M26.8637 139.535L137.313 104.956L145.497 138.689L123.596 114.522L37.9592 143.169C29.9879 145.724 27.2408 141.811 26.8637 139.535Z" fill="#151515"/>
<path d="M127.361 27.4563L130.976 41.1554C145.498 97.317 149.023 102.092 137.313 104.956M137.313 104.956L26.8637 139.535C27.2408 141.811 29.9879 145.724 37.9592 143.169L123.596 114.522L145.497 138.689L137.313 104.956Z" stroke="#151515" stroke-width="5" stroke-linecap="round"/>
</g>
<g filter="url(#filter3_d_58_1224)">
<path d="M86.2454 95.1531L87.1364 93.4198C88.9773 89.5851 94.3335 84.8952 102.239 86.2975L105.315 86.9776" stroke="black" stroke-width="5" stroke-linecap="round"/>
</g>
<g filter="url(#filter4_d_58_1224)">
<path d="M60.5196 76.1803C59.0302 71.5515 67.3472 69.1875 68.8414 74.0284C69.8093 79.6464 62.1254 81.171 60.5196 76.1803Z" fill="black"/>
<path d="M60.5196 76.1803C59.0302 71.5515 67.3472 69.1875 68.8414 74.0284C69.8093 79.6464 62.1254 81.171 60.5196 76.1803Z" stroke="black" stroke-width="5" stroke-linecap="round"/>
</g>
<g filter="url(#filter5_d_58_1224)">
<path d="M91.0489 68.2857C89.5595 63.6568 97.8765 61.2928 99.3707 66.1338C100.339 71.7518 92.6547 73.2763 91.0489 68.2857Z" fill="black"/>
<path d="M91.0489 68.2857C89.5595 63.6568 97.8765 61.2928 99.3707 66.1338C100.339 71.7518 92.6547 73.2763 91.0489 68.2857Z" stroke="black" stroke-width="5" stroke-linecap="round"/>
</g>
</g>
<g filter="url(#filter6_d_58_1224)">
<path d="M451.696 346.062L443.555 170.115L212.82 222.711C199.045 225.842 188.087 227.094 184.331 228.033C181.325 228.785 87.9042 238.573 41.5694 243.374L108.88 415.877C112.637 426.396 123.177 427.982 127.978 427.461L250.141 420.735C275.557 421.154 283.992 415.877 292.341 412.433L436.042 365.785C450.819 363.531 452.635 351.697 451.696 346.062Z" fill="#151515" stroke="black"/>
<g filter="url(#filter7_i_58_1224)">
<path d="M451.666 167.081L449.385 138.077L246.361 182.723L170.756 197.714L26.7159 210.097V212.052C28.2367 222.698 32.1403 243.69 32.9077 243.989C34.1223 244.462 36.9269 243.989 38.1218 243.989L181.51 228.347C190.342 228.347 209.948 223.464 216.705 221.503L446.452 170.014L446.476 170.01C451.116 169.272 451.666 169.185 451.666 167.081Z" fill="#D9D9D9"/>
</g>
<path d="M451.666 167.081L449.385 138.077L246.361 182.723L170.756 197.714L26.7159 210.097V212.052C28.2367 222.698 32.1403 243.69 32.9077 243.989C34.1223 244.462 36.9269 243.989 38.1218 243.989L181.51 228.347C190.342 228.347 209.948 223.464 216.705 221.503L446.452 170.014L446.476 170.01C451.116 169.272 451.666 169.185 451.666 167.081Z" stroke="black"/>
<path d="M440.587 134.818L385.513 140.032L286.119 152.09L38.0298 206.585C18.841 210.456 28.2434 209.858 35.0699 209.424L35.3809 209.405L162.868 198.809C170.729 198.809 195.68 192.999 204.322 191.522L436.946 140.551C457.633 137.73 448.334 134.631 440.587 134.818Z" stroke="black"/>
<path d="M410.428 9.8238C409.506 7.36657 405.126 0.11909 395.15 1.48193L224.006 33.6553C215.507 36.1368 210.466 39.5936 202.328 52.1964L119.442 188.713L129.116 186.505L157.313 180.267L224.365 70.7766C230.415 61.7746 236.248 58.3898 251.264 56.8917L398.725 33.6553L342.868 163.69C342.273 168.009 342.868 175.105 348.578 179.482C352.088 182.429 363.119 186.346 368.284 177.193L370.858 171.135L427.189 38.5707C433.58 23.9726 425.956 9.8238 410.428 9.8238Z" fill="#151515"/>
<path d="M370.858 171.135C366.253 173.988 354.514 174.14 353.593 161.455L406.769 38.5707C411.11 29.2069 414.608 20.9725 410.428 9.8238M410.428 9.8238C409.506 7.36657 405.126 0.11909 395.15 1.48193L224.006 33.6553C215.507 36.1368 210.466 39.5936 202.328 52.1964L119.442 188.713L129.116 186.505L157.313 180.267L224.365 70.7766C230.415 61.7746 236.248 58.3898 251.264 56.8917L398.725 33.6553L342.868 163.69C342.273 168.009 342.868 175.105 348.578 179.482C352.088 182.429 363.119 186.346 368.284 177.193L427.189 38.5707C433.58 23.9726 425.956 9.8238 410.428 9.8238Z" stroke="black"/>
<g filter="url(#filter8_i_58_1224)">
<path d="M394.54 322.694L373.849 248.062C367.642 232.501 350.951 238.233 353.803 250.966L376.478 329.545C382.412 345.08 399.88 338.998 394.54 322.694Z" fill="#F9F2F0"/>
</g>
<path d="M394.54 322.694L373.849 248.062C367.642 232.501 350.951 238.233 353.803 250.966L376.478 329.545C382.412 345.08 399.88 338.998 394.54 322.694Z" stroke="black"/>
<g filter="url(#filter9_i_58_1224)">
<path d="M365.018 330.929L344.327 256.297C338.12 240.735 321.429 246.468 324.282 259.201L346.956 337.779C352.891 353.314 370.358 347.232 365.018 330.929Z" fill="#F9F2F0"/>
</g>
<path d="M365.018 330.929L344.327 256.297C338.12 240.735 321.429 246.468 324.282 259.201L346.956 337.779C352.891 353.314 370.358 347.232 365.018 330.929Z" stroke="black"/>
<g filter="url(#filter10_i_58_1224)">
<path d="M336.069 343.112L315.378 268.48C309.171 252.918 292.48 258.651 295.332 271.384L318.007 349.962C323.941 365.497 341.409 359.415 336.069 343.112Z" fill="#F9F2F0"/>
</g>
<path d="M336.069 343.112L315.378 268.48C309.171 252.918 292.48 258.651 295.332 271.384L318.007 349.962C323.941 365.497 341.409 359.415 336.069 343.112Z" stroke="black"/>
</g>
<defs>
<filter id="filter0_d_58_1224" x="0.199219" y="23.6572" width="168.312" height="142.879" filterUnits="userSpaceOnUse" color-interpolation-filters="sRGB">
<feFlood flood-opacity="0" result="BackgroundImageFix"/>
<feColorMatrix in="SourceAlpha" type="matrix" values="0 0 0 0 0 0 0 0 0 0 0 0 0 0 0 0 0 0 127 0" result="hardAlpha"/>
<feOffset dy="4"/>
<feGaussianBlur stdDeviation="2"/>
<feComposite in2="hardAlpha" operator="out"/>
<feColorMatrix type="matrix" values="0 0 0 0 0 0 0 0 0 0 0 0 0 0 0 0 0 0 0.25 0"/>
<feBlend mode="normal" in2="BackgroundImageFix" result="effect1_dropShadow_58_1224"/>
<feBlend mode="normal" in="SourceGraphic" in2="effect1_dropShadow_58_1224" result="shape"/>
</filter>
<filter id="filter1_d_58_1224" x="11.9883" y="48.606" width="46.5391" height="48.5014" filterUnits="userSpaceOnUse" color-interpolation-filters="sRGB">
<feFlood flood-opacity="0" result="BackgroundImageFix"/>
<feColorMatrix in="SourceAlpha" type="matrix" values="0 0 0 0 0 0 0 0 0 0 0 0 0 0 0 0 0 0 127 0" result="hardAlpha"/>
<feOffset dy="4"/>
<feGaussianBlur stdDeviation="2"/>
<feComposite in2="hardAlpha" operator="out"/>
<feColorMatrix type="matrix" values="0 0 0 0 0 0 0 0 0 0 0 0 0 0 0 0 0 0 0.25 0"/>
<feBlend mode="normal" in2="BackgroundImageFix" result="effect1_dropShadow_58_1224"/>
<feBlend mode="normal" in="SourceGraphic" in2="effect1_dropShadow_58_1224" result="shape"/>
</filter>
<filter id="filter2_d_58_1224" x="20.041" y="24.9569" width="131.887" height="129.546" filterUnits="userSpaceOnUse" color-interpolation-filters="sRGB">
<feFlood flood-opacity="0" result="BackgroundImageFix"/>
<feColorMatrix in="SourceAlpha" type="matrix" values="0 0 0 0 0 0 0 0 0 0 0 0 0 0 0 0 0 0 127 0" result="hardAlpha"/>
<feOffset dy="4"/>
<feGaussianBlur stdDeviation="2"/>
<feComposite in2="hardAlpha" operator="out"/>
<feColorMatrix type="matrix" values="0 0 0 0 0 0 0 0 0 0 0 0 0 0 0 0 0 0 0.25 0"/>
<feBlend mode="normal" in2="BackgroundImageFix" result="effect1_dropShadow_58_1224"/>
<feBlend mode="normal" in="SourceGraphic" in2="effect1_dropShadow_58_1224" result="shape"/>
</filter>
<filter id="filter3_d_58_1224" x="79.6699" y="83.6177" width="32.2207" height="21.9592" filterUnits="userSpaceOnUse" color-interpolation-filters="sRGB">
<feFlood flood-opacity="0" result="BackgroundImageFix"/>
<feColorMatrix in="SourceAlpha" type="matrix" values="0 0 0 0 0 0 0 0 0 0 0 0 0 0 0 0 0 0 127 0" result="hardAlpha"/>
<feOffset dy="4"/>
<feGaussianBlur stdDeviation="2"/>
<feComposite in2="hardAlpha" operator="out"/>
<feColorMatrix type="matrix" values="0 0 0 0 0 0 0 0 0 0 0 0 0 0 0 0 0 0 0.25 0"/>
<feBlend mode="normal" in2="BackgroundImageFix" result="effect1_dropShadow_58_1224"/>
<feBlend mode="normal" in="SourceGraphic" in2="effect1_dropShadow_58_1224" result="shape"/>
</filter>
<filter id="filter4_d_58_1224" x="53.8418" y="68.8591" width="21.584" height="20.8375" filterUnits="userSpaceOnUse" color-interpolation-filters="sRGB">
<feFlood flood-opacity="0" result="BackgroundImageFix"/>
<feColorMatrix in="SourceAlpha" type="matrix" values="0 0 0 0 0 0 0 0 0 0 0 0 0 0 0 0 0 0 127 0" result="hardAlpha"/>
<feOffset dy="4"/>
<feGaussianBlur stdDeviation="2"/>
<feComposite in2="hardAlpha" operator="out"/>
<feColorMatrix type="matrix" values="0 0 0 0 0 0 0 0 0 0 0 0 0 0 0 0 0 0 0.25 0"/>
<feBlend mode="normal" in2="BackgroundImageFix" result="effect1_dropShadow_58_1224"/>
<feBlend mode="normal" in="SourceGraphic" in2="effect1_dropShadow_58_1224" result="shape"/>
</filter>
<filter id="filter5_d_58_1224" x="84.3711" y="60.9644" width="21.584" height="20.8375" filterUnits="userSpaceOnUse" color-interpolation-filters="sRGB">
<feFlood flood-opacity="0" result="BackgroundImageFix"/>
<feColorMatrix in="SourceAlpha" type="matrix" values="0 0 0 0 0 0 0 0 0 0 0 0 0 0 0 0 0 0 127 0" result="hardAlpha"/>
<feOffset dy="4"/>
<feGaussianBlur stdDeviation="2"/>
<feComposite in2="hardAlpha" operator="out"/>
<feColorMatrix type="matrix" values="0 0 0 0 0 0 0 0 0 0 0 0 0 0 0 0 0 0 0.25 0"/>
<feBlend mode="normal" in2="BackgroundImageFix" result="effect1_dropShadow_58_1224"/>
<feBlend mode="normal" in="SourceGraphic" in2="effect1_dropShadow_58_1224" result="shape"/>
</filter>
<filter id="filter6_d_58_1224" x="22.1504" y="0.812805" width="434.25" height="435.234" filterUnits="userSpaceOnUse" color-interpolation-filters="sRGB">
<feFlood flood-opacity="0" result="BackgroundImageFix"/>
<feColorMatrix in="SourceAlpha" type="matrix" values="0 0 0 0 0 0 0 0 0 0 0 0 0 0 0 0 0 0 127 0" result="hardAlpha"/>
<feOffset dy="4"/>
<feGaussianBlur stdDeviation="2"/>
<feComposite in2="hardAlpha" operator="out"/>
<feColorMatrix type="matrix" values="0 0 0 0 0 0 0 0 0 0 0 0 0 0 0 0 0 0 0.25 0"/>
<feBlend mode="normal" in2="BackgroundImageFix" result="effect1_dropShadow_58_1224"/>
<feBlend mode="normal" in="SourceGraphic" in2="effect1_dropShadow_58_1224" result="shape"/>
</filter>
<filter id="filter7_i_58_1224" x="26.2168" y="137.466" width="425.949" height="111.234" filterUnits="userSpaceOnUse" color-interpolation-filters="sRGB">
<feFlood flood-opacity="0" result="BackgroundImageFix"/>
<feBlend mode="normal" in="SourceGraphic" in2="BackgroundImageFix" result="shape"/>
<feColorMatrix in="SourceAlpha" type="matrix" values="0 0 0 0 0 0 0 0 0 0 0 0 0 0 0 0 0 0 127 0" result="hardAlpha"/>
<feOffset dy="4"/>
<feGaussianBlur stdDeviation="2"/>
<feComposite in2="hardAlpha" operator="arithmetic" k2="-1" k3="1"/>
<feColorMatrix type="matrix" values="0 0 0 0 0 0 0 0 0 0 0 0 0 0 0 0 0 0 0.25 0"/>
<feBlend mode="normal" in2="shape" result="effect1_innerShadow_58_1224"/>
</filter>
<filter id="filter8_i_58_1224" x="352.979" y="238.162" width="43.0605" height="104.881" filterUnits="userSpaceOnUse" color-interpolation-filters="sRGB">
<feFlood flood-opacity="0" result="BackgroundImageFix"/>
<feBlend mode="normal" in="SourceGraphic" in2="BackgroundImageFix" result="shape"/>
<feColorMatrix in="SourceAlpha" type="matrix" values="0 0 0 0 0 0 0 0 0 0 0 0 0 0 0 0 0 0 127 0" result="hardAlpha"/>
<feOffset dy="4"/>
<feGaussianBlur stdDeviation="2"/>
<feComposite in2="hardAlpha" operator="arithmetic" k2="-1" k3="1"/>
<feColorMatrix type="matrix" values="0 0 0 0 0 0 0 0 0 0 0 0 0 0 0 0 0 0 0.25 0"/>
<feBlend mode="normal" in2="shape" result="effect1_innerShadow_58_1224"/>
</filter>
<filter id="filter9_i_58_1224" x="323.457" y="246.397" width="43.0605" height="104.881" filterUnits="userSpaceOnUse" color-interpolation-filters="sRGB">
<feFlood flood-opacity="0" result="BackgroundImageFix"/>
<feBlend mode="normal" in="SourceGraphic" in2="BackgroundImageFix" result="shape"/>
<feColorMatrix in="SourceAlpha" type="matrix" values="0 0 0 0 0 0 0 0 0 0 0 0 0 0 0 0 0 0 127 0" result="hardAlpha"/>
<feOffset dy="4"/>
<feGaussianBlur stdDeviation="2"/>
<feComposite in2="hardAlpha" operator="arithmetic" k2="-1" k3="1"/>
<feColorMatrix type="matrix" values="0 0 0 0 0 0 0 0 0 0 0 0 0 0 0 0 0 0 0.25 0"/>
<feBlend mode="normal" in2="shape" result="effect1_innerShadow_58_1224"/>
</filter>
<filter id="filter10_i_58_1224" x="294.508" y="258.579" width="43.0605" height="104.881" filterUnits="userSpaceOnUse" color-interpolation-filters="sRGB">
<feFlood flood-opacity="0" result="BackgroundImageFix"/>
<feBlend mode="normal" in="SourceGraphic" in2="BackgroundImageFix" result="shape"/>
<feColorMatrix in="SourceAlpha" type="matrix" values="0 0 0 0 0 0 0 0 0 0 0 0 0 0 0 0 0 0 127 0" result="hardAlpha"/>
<feOffset dy="4"/>
<feGaussianBlur stdDeviation="2"/>
<feComposite in2="hardAlpha" operator="arithmetic" k2="-1" k3="1"/>
<feColorMatrix type="matrix" values="0 0 0 0 0 0 0 0 0 0 0 0 0 0 0 0 0 0 0.25 0"/>
<feBlend mode="normal" in2="shape" result="effect1_innerShadow_58_1224"/>
</filter>
</defs>
</svg>
