<svg xmlns="http://www.w3.org/2000/svg"  viewBox="0 0 14 14" fill="none">
  <path d="M7 11.102L3.37 13.294C3.26334 13.3467 3.16434 13.368 3.073 13.358C2.98234 13.3473 2.894 13.316 2.808 13.264C2.72134 13.2107 2.656 13.1353 2.612 13.038C2.568 12.9407 2.564 12.8343 2.6 12.719L3.566 8.60901L0.371002 5.83901C0.281002 5.76568 0.221668 5.67801 0.193002 5.57601C0.164335 5.47401 0.170668 5.37635 0.212002 5.28301C0.253335 5.18968 0.308335 5.11301 0.377002 5.05301C0.446335 4.99501 0.539669 4.95568 0.657002 4.93501L4.873 4.56701L6.517 0.675014C6.56234 0.565014 6.62767 0.48568 6.713 0.437014C6.79834 0.388347 6.894 0.364014 7 0.364014C7.106 0.364014 7.202 0.388347 7.288 0.437014C7.374 0.48568 7.439 0.565014 7.483 0.675014L9.127 4.56701L13.342 4.93501C13.46 4.95501 13.5537 4.99468 13.623 5.05401C13.6923 5.11268 13.7477 5.18901 13.789 5.28301C13.8297 5.37635 13.8357 5.47401 13.807 5.57601C13.7783 5.67801 13.719 5.76568 13.629 5.83901L10.434 8.60901L11.4 12.719C11.4373 12.833 11.4337 12.939 11.389 13.037C11.3443 13.135 11.2787 13.2103 11.192 13.263C11.1067 13.3163 11.0183 13.348 10.927 13.358C10.8363 13.368 10.7377 13.3467 10.631 13.294L7 11.102Z" fill="black"/>
</svg>