<svg viewBox="0 0 785 307" fill="none" xmlns="http://www.w3.org/2000/svg">
<path d="M14.1604 232.185V207.685L139.46 47.3846H177.26L53.0104 207.685L35.1604 202.085H230.81V232.185H14.1604ZM150.31 292.385V232.185L151.36 202.085V148.885H184.26V292.385H150.31Z" fill="black"/>
<mask id="path-2-outside-1_58_1399" maskUnits="userSpaceOnUse" x="248.154" y="41.3846" width="206" height="257" fill="black">
<rect fill="white" x="248.154" y="41.3846" width="206" height="257"/>
<path d="M351.331 295.185C332.197 295.185 315.047 290.285 299.881 280.485C284.947 270.685 273.047 256.451 264.181 237.785C255.547 219.118 251.231 196.485 251.231 169.885C251.231 143.285 255.547 120.651 264.181 101.985C273.047 83.3179 284.947 69.0846 299.881 59.2846C315.047 49.4846 332.197 44.5846 351.331 44.5846C370.231 44.5846 387.264 49.4846 402.431 59.2846C417.597 69.0846 429.497 83.3179 438.131 101.985C446.764 120.651 451.081 143.285 451.081 169.885C451.081 196.485 446.764 219.118 438.131 237.785C429.497 256.451 417.597 270.685 402.431 280.485C387.264 290.285 370.231 295.185 351.331 295.185ZM351.331 264.035C364.164 264.035 375.364 260.535 384.931 253.535C394.731 246.535 402.314 236.035 407.681 222.035C413.281 208.035 416.081 190.651 416.081 169.885C416.081 149.118 413.281 131.735 407.681 117.735C402.314 103.735 394.731 93.2346 384.931 86.2346C375.364 79.2346 364.164 75.7346 351.331 75.7346C338.497 75.7346 327.181 79.2346 317.381 86.2346C307.581 93.2346 299.881 103.735 294.281 117.735C288.914 131.735 286.231 149.118 286.231 169.885C286.231 190.651 288.914 208.035 294.281 222.035C299.881 236.035 307.581 246.535 317.381 253.535C327.181 260.535 338.497 264.035 351.331 264.035Z"/>
</mask>
<path d="M299.881 280.485L298.235 282.993L298.244 282.999L298.253 283.004L299.881 280.485ZM264.181 237.785L261.458 239.044L261.464 239.058L261.471 239.072L264.181 237.785ZM264.181 101.985L261.471 100.697L261.464 100.711L261.458 100.725L264.181 101.985ZM299.881 59.2846L298.253 56.7648L298.244 56.7706L298.235 56.7764L299.881 59.2846ZM402.431 59.2846L404.059 56.7648L402.431 59.2846ZM438.131 101.985L440.854 100.725L440.854 100.725L438.131 101.985ZM438.131 237.785L440.854 239.044L440.854 239.044L438.131 237.785ZM402.431 280.485L404.059 283.004L402.431 280.485ZM384.931 253.535L383.187 251.093L383.173 251.103L383.159 251.113L384.931 253.535ZM407.681 222.035L404.895 220.92L404.887 220.941L404.879 220.961L407.681 222.035ZM407.681 117.735L404.879 118.808L404.887 118.829L404.895 118.849L407.681 117.735ZM384.931 86.2346L383.159 88.6557L383.173 88.6658L383.187 88.6758L384.931 86.2346ZM317.381 86.2346L315.637 83.7934L315.637 83.7934L317.381 86.2346ZM294.281 117.735L291.495 116.62L291.487 116.641L291.479 116.661L294.281 117.735ZM294.281 222.035L291.479 223.108L291.487 223.129L291.495 223.149L294.281 222.035ZM317.381 253.535L319.124 251.093L319.124 251.093L317.381 253.535ZM351.331 292.185C332.739 292.185 316.161 287.432 301.509 277.965L298.253 283.004C313.934 293.137 331.656 298.185 351.331 298.185V292.185ZM301.527 277.976C287.121 268.523 275.559 254.747 266.89 236.497L261.471 239.072C270.536 258.156 282.773 272.846 298.235 282.993L301.527 277.976ZM266.904 236.525C258.498 218.351 254.231 196.172 254.231 169.885H248.231C248.231 196.797 252.597 219.885 261.458 239.044L266.904 236.525ZM254.231 169.885C254.231 143.597 258.498 121.418 266.904 103.244L261.458 100.725C252.597 119.885 248.231 142.972 248.231 169.885H254.231ZM266.89 103.272C275.559 85.0226 287.121 71.2462 301.527 61.7927L298.235 56.7764C282.773 66.923 270.536 81.6132 261.471 100.697L266.89 103.272ZM301.509 61.8043C316.161 52.3369 332.739 47.5846 351.331 47.5846V41.5846C331.656 41.5846 313.934 46.6323 298.253 56.7648L301.509 61.8043ZM351.331 47.5846C369.681 47.5846 386.144 52.3329 400.803 61.8043L404.059 56.7648C388.384 46.6363 370.78 41.5846 351.331 41.5846V47.5846ZM400.803 61.8043C415.429 71.2551 426.979 85.0191 435.408 103.244L440.854 100.725C432.016 81.6167 419.766 66.9141 404.059 56.7648L400.803 61.8043ZM435.408 103.244C443.813 121.418 448.081 143.597 448.081 169.885H454.081C454.081 142.972 449.715 119.885 440.854 100.725L435.408 103.244ZM448.081 169.885C448.081 196.172 443.813 218.351 435.408 236.525L440.854 239.044C449.715 219.885 454.081 196.797 454.081 169.885H448.081ZM435.408 236.525C426.979 254.75 415.429 268.514 400.803 277.965L404.059 283.004C419.766 272.855 432.016 258.152 440.854 239.044L435.408 236.525ZM400.803 277.965C386.144 287.436 369.681 292.185 351.331 292.185V298.185C370.78 298.185 388.384 293.133 404.059 283.004L400.803 277.965ZM351.331 267.035C364.745 267.035 376.578 263.363 386.702 255.956L383.159 251.113C374.15 257.706 363.583 261.035 351.331 261.035V267.035ZM386.674 255.976C397.059 248.558 404.956 237.523 410.482 223.108L404.879 220.961C399.672 234.546 392.402 244.511 383.187 251.093L386.674 255.976ZM410.466 223.149C416.25 208.688 419.081 190.899 419.081 169.885H413.081C413.081 190.404 410.311 207.381 404.895 220.92L410.466 223.149ZM419.081 169.885C419.081 148.871 416.25 131.081 410.466 116.62L404.895 118.849C410.311 132.388 413.081 149.365 413.081 169.885H419.081ZM410.482 116.661C404.956 102.246 397.059 91.2109 386.674 83.7934L383.187 88.6758C392.402 95.2583 399.672 105.223 404.879 118.808L410.482 116.661ZM386.702 83.8135C376.578 76.4058 364.745 72.7346 351.331 72.7346V78.7346C363.583 78.7346 374.15 82.0634 383.159 88.6557L386.702 83.8135ZM351.331 72.7346C337.915 72.7346 325.98 76.4055 315.637 83.7934L319.124 88.6758C328.381 82.0637 339.079 78.7346 351.331 78.7346V72.7346ZM315.637 83.7934C305.265 91.2019 297.255 102.221 291.495 116.62L297.066 118.849C302.507 105.248 309.896 95.2672 319.124 88.6758L315.637 83.7934ZM291.479 116.661C285.941 131.108 283.231 148.882 283.231 169.885H289.231C289.231 149.354 291.887 132.361 297.082 118.808L291.479 116.661ZM283.231 169.885C283.231 190.887 285.941 208.661 291.479 223.108L297.082 220.961C291.887 207.408 289.231 190.415 289.231 169.885H283.231ZM291.495 223.149C297.255 237.548 305.265 248.567 315.637 255.976L319.124 251.093C309.896 244.502 302.507 234.521 297.066 220.92L291.495 223.149ZM315.637 255.976C325.98 263.364 337.915 267.035 351.331 267.035V261.035C339.079 261.035 328.381 257.705 319.124 251.093L315.637 255.976Z" fill="black" mask="url(#path-2-outside-1_58_1399)"/>
<path d="M516.402 172.922L525.154 150.038L699.448 45.0735L734.754 58.5762L561.44 163.916L546.768 152.309L729.51 222.198L718.758 250.312L516.402 172.922ZM622.065 277.785L643.569 221.557L655.302 193.818L674.306 144.128L705.035 155.88L653.775 289.912L622.065 277.785Z" fill="black"/>
</svg>
